<svg width="1921" height="1792" viewBox="0 0 1921 1792" fill="none" xmlns="http://www.w3.org/2000/svg">
<path d="M640 1408C640 1366.67 649.667 1330.33 669 1299C688.333 1267.67 713.667 1241 745 1219C776.333 1197 810.667 1180.33 848 1169C885.333 1157.67 922.667 1152 960 1152C996.667 1152 1033.67 1157.67 1071 1169C1108.33 1180.33 1142.67 1196.67 1174 1218C1205.33 1239.33 1230.67 1266 1250 1298C1269.33 1330 1279.33 1366.67 1280 1408H640ZM1504 1536C1512.67 1536 1520 1539 1526 1545C1532 1551 1535.33 1558.67 1536 1568V1792H384V1568C384 1559.33 387 1552 393 1546C399 1540 406.667 1536.67 416 1536H1504ZM1792 128C1810 128 1826.67 131.333 1842 138C1857.33 144.667 1870.67 153.667 1882 165C1893.33 176.333 1902.67 190 1910 206C1917.33 222 1920.67 238.667 1920 256V448C1920 513.333 1908 573.333 1884 628C1860 682.667 1827.33 729.667 1786 769C1744.67 808.333 1695.67 839.333 1639 862C1582.33 884.667 1522.33 896 1459 896C1431.67 937.333 1399.67 974 1363 1006C1326.33 1038 1286 1064.67 1242 1086C1198 1107.33 1152.33 1123.67 1105 1135C1057.67 1146.33 1009.33 1152 960 1152C910.667 1152 862.333 1146.67 815 1136C767.667 1125.33 722 1109 678 1087C634 1065 594 1038 558 1006C522 974 489.667 937.333 461 896C397 896 337 885 281 863C225 841 176.333 810 135 770C93.6667 730 60.6667 682.667 36 628C11.3333 573.333 -0.666657 513.333 9.63733e-06 448V256C9.63733e-06 238 3.33334 221.333 10 206C16.6667 190.667 25.6667 177.333 37 166C48.3333 154.667 62 145.333 78 138C94 130.667 110.667 127.333 128 128H384V0H1536V128H1792ZM384 256H128V448C128 486 134.333 522.333 147 557C159.667 591.667 177.333 622.667 200 650C222.667 677.333 249.667 701 281 721C312.333 741 346.667 754.667 384 762V256ZM1792 256H1536V762C1573.33 754 1607.67 740.333 1639 721C1670.33 701.667 1697.33 678.333 1720 651C1742.67 623.667 1760.33 592.333 1773 557C1785.67 521.667 1792 485.333 1792 448V256Z" fill="#005EFF"/>
</svg>
