<svg width="2048" height="2048" viewBox="0 0 2048 2048" fill="none" xmlns="http://www.w3.org/2000/svg">
<g clip-path="url(#clip0_7_6)">
<mask id="mask0_7_6" style="mask-type:luminance" maskUnits="userSpaceOnUse" x="0" y="0" width="2048" height="2048">
<path d="M2048 0H0V2048H2048V0Z" fill="white"/>
</mask>
<g mask="url(#mask0_7_6)">
<path d="M1024 0C1118 0 1208.67 12 1296 36C1383.33 60 1464.67 94.6667 1540 140C1615.33 185.333 1684.33 238.667 1747 300C1809.67 361.333 1863.33 430.333 1908 507C1952.67 583.667 1987 665.333 2011 752C2035 838.667 2047.33 929.333 2048 1024C2048 1118 2036 1208.67 2012 1296C1988 1383.33 1953.33 1464.67 1908 1540C1862.67 1615.33 1809.33 1684.33 1748 1747C1686.67 1809.67 1617.67 1863.33 1541 1908C1464.33 1952.67 1382.67 1987 1296 2011C1209.33 2035 1118.67 2047.33 1024 2048C930 2048 839.333 2036 752 2012C664.667 1988 583.333 1953.33 508 1908C432.667 1862.67 363.667 1809.33 301 1748C238.333 1686.67 184.667 1617.67 140 1541C95.3333 1464.33 61 1382.67 37 1296C13 1209.33 0.666667 1118.67 0 1024C0 930 12 839.333 36 752C60 664.667 94.6667 583.333 140 508C185.333 432.667 238.667 363.667 300 301C361.333 238.333 430.333 184.667 507 140C583.667 95.3333 665.333 61 752 37C838.667 13 929.333 0.666667 1024 0ZM1536 1024H1024V384H896V1152H1536V1024Z" fill="#005EFF"/>
</g>
</g>
<defs>
<clipPath id="clip0_7_6">
<rect width="2048" height="2048" fill="white"/>
</clipPath>
</defs>
</svg>
