<svg width="1666" height="1666" viewBox="0 0 1666 1666" fill="none" xmlns="http://www.w3.org/2000/svg">
<path d="M833 1C909.667 1 983.333 11 1054 31C1124.67 51 1190.67 79 1252 115C1313.33 151 1369.67 194.333 1421 245C1472.33 295.667 1515.67 351.667 1551 413C1586.33 474.333 1614.33 540.667 1635 612C1655.67 683.333 1665.67 757 1665 833C1665 909.667 1655 983.333 1635 1054C1615 1124.67 1587 1190.67 1551 1252C1515 1313.33 1471.67 1369.67 1421 1421C1370.33 1472.33 1314.33 1515.67 1253 1551C1191.67 1586.33 1125.33 1614.33 1054 1635C982.667 1655.67 909 1665.67 833 1665C756.333 1665 682.667 1655 612 1635C541.333 1615 475.333 1587 414 1551C352.667 1515 296.333 1471.67 245 1421C193.667 1370.33 150.333 1314.33 115 1253C79.6667 1191.67 51.6667 1125.33 31 1054C10.3333 982.667 0.333333 909 1 833C1 756.333 11 682.667 31 612C51 541.333 79 475.333 115 414C151 352.667 194.333 296.333 245 245C295.667 193.667 351.667 150.333 413 115C474.333 79.6667 540.667 51.6667 612 31C683.333 10.3333 757 0.333333 833 1Z" fill="#005EFF"/>
</svg>
