<svg width="16" height="16" viewBox="0 0 16 16" fill="none" xmlns="http://www.w3.org/2000/svg">
<g clip-path="url(#clip0_10_6)">
<path d="M8 0C8.71061 0.00101826 9.41753 0.102008 10.1 0.3C10.7725 0.462038 11.4142 0.732223 12 1.1C12.6054 1.4421 13.1749 1.84412 13.7 2.3C14.1559 2.82508 14.5579 3.3946 14.9 4C15.2678 4.58584 15.538 5.22753 15.7 5.9C16.1 7.27143 16.1 8.72857 15.7 10.1C15.538 10.7725 15.2678 11.4142 14.9 12C14.5579 12.6054 14.1559 13.1749 13.7 13.7C13.1749 14.1559 12.6054 14.5579 12 14.9C11.4142 15.2678 10.7725 15.538 10.1 15.7C8.72857 16.1 7.27143 16.1 5.9 15.7C5.22753 15.538 4.58584 15.2678 4 14.9C3.3946 14.5579 2.82508 14.1559 2.3 13.7C1.84412 13.1749 1.4421 12.6054 1.1 12C0.732223 11.4142 0.462038 10.7725 0.3 10.1C-0.1 8.72857 -0.1 7.27143 0.3 5.9C0.462038 5.22753 0.732223 4.58584 1.1 4C1.4421 3.3946 1.84412 2.82508 2.3 2.3C2.82508 1.84412 3.3946 1.4421 4 1.1C4.58584 0.732223 5.22753 0.462038 5.9 0.3C6.58247 0.102008 7.28939 0.00101826 8 0ZM8 15C8.81874 15.029 9.63494 14.893 10.4 14.6C11.187 14.2646 11.9266 13.8276 12.6 13.3L2.7 3.4C2.17241 4.07339 1.73535 4.81302 1.4 5.6C1.10699 6.36506 0.970951 7.18126 1 8C1.00189 8.64498 1.10307 9.28582 1.3 9.9C1.42926 10.4731 1.66685 11.0161 2 11.5C2.25092 12.047 2.62788 12.5268 3.1 12.9C3.47321 13.3721 3.95299 13.7491 4.5 14L6.1 14.8L8 15ZM13.3 12.6C13.8276 11.9266 14.2646 11.187 14.6 10.4C14.893 9.63494 15.029 8.81874 15 8C14.983 7.36242 14.9161 6.72715 14.8 6.1C14.5942 5.53836 14.3258 5.00165 14 4.5C13.7491 3.95299 13.3721 3.47321 12.9 3.1C12.5268 2.62788 12.047 2.25092 11.5 2C11.0161 1.66685 10.4731 1.42926 9.9 1.3C9.28582 1.10307 8.64498 1.00189 8 1C7.18126 0.970951 6.36506 1.10699 5.6 1.4C4.81302 1.73535 4.07339 2.17241 3.4 2.7L13.3 12.6Z" fill="black"/>
</g>
<defs>
<clipPath id="clip0_10_6">
<rect width="16" height="16" fill="white"/>
</clipPath>
</defs>
</svg>
