<svg width="18" height="15" viewBox="0 0 18 15" fill="none" xmlns="http://www.w3.org/2000/svg">
<path d="M10.5 9C11.5625 9 12.539 8.63179 13.3089 8.01596L17.1464 11.8536C17.3417 12.0488 17.6583 12.0488 17.8536 11.8536C18.0488 11.6583 18.0488 11.3417 17.8536 11.1464L14.016 7.30885C14.6318 6.53901 15 5.56252 15 4.50002C15 2.01473 12.9853 0 10.5 0C8.0147 0 6 2.01473 6 4.50002C6 6.98531 8.0147 9 10.5 9ZM10.5 1C12.433 1 14 2.56701 14 4.50002C14 6.43302 12.433 8.00003 10.5 8.00003C8.567 8.00003 7 6.43302 7 4.50002C7 2.56701 8.567 1 10.5 1ZM10.5199 10H13.8787L14.8787 11H0.5C0.22386 11 0 10.7761 0 10.5C0 10.2239 0.22386 10 0.5 10H10.4801H10.5H10.5199ZM0.5 2H5.59971C5.43777 2.31679 5.30564 2.65136 5.20704 3H0.5C0.22386 3 0 2.77614 0 2.5C0 2.22386 0.22386 2 0.5 2ZM5.5997 7C5.43776 6.68321 5.30563 6.34864 5.20703 6H0.5C0.22386 6 0 6.22386 0 6.5C0 6.77614 0.22386 7 0.5 7H5.5997ZM0 14.5C0 14.2239 0.22386 14 0.5 14H15.5C15.7761 14 16 14.2239 16 14.5C16 14.7761 15.7761 15 15.5 15H0.5C0.22386 15 0 14.7761 0 14.5Z" fill="white"/>
</svg>
