<svg width="2048" height="2048" viewBox="0 0 2048 2048" fill="none" xmlns="http://www.w3.org/2000/svg">
<path d="M1354 1167L1792 640V1920H256V640L701 1166L1024 640L1354 1167ZM384 384C384 402 380.667 418.667 374 434C367.333 449.333 358.333 462.667 347 474C335.667 485.333 322 494.667 306 502C290 509.333 273.333 512.667 256 512C238 512 221.333 508.667 206 502C190.667 495.333 177.333 486.333 166 475C154.667 463.667 145.333 450 138 434C130.667 418 127.333 401.333 128 384C128 366 131.333 349.333 138 334C144.667 318.667 153.667 305.333 165 294C176.333 282.667 190 273.333 206 266C222 258.667 238.667 255.333 256 256C274 256 290.667 259.333 306 266C321.333 272.667 334.667 281.667 346 293C357.333 304.333 366.667 318 374 334C381.333 350 384.667 366.667 384 384ZM1024 512C1006 512 989.333 508.667 974 502C958.667 495.333 945.333 486.333 934 475C922.667 463.667 913.333 450 906 434C898.667 418 895.333 401.333 896 384C896 366 899.333 349.333 906 334C912.667 318.667 921.667 305.333 933 294C944.333 282.667 958 273.333 974 266C990 258.667 1006.67 255.333 1024 256C1042 256 1058.67 259.333 1074 266C1089.33 272.667 1102.67 281.667 1114 293C1125.33 304.333 1134.67 318 1142 334C1149.33 350 1152.67 366.667 1152 384C1152 402 1148.67 418.667 1142 434C1135.33 449.333 1126.33 462.667 1115 474C1103.67 485.333 1090 494.667 1074 502C1058 509.333 1041.33 512.667 1024 512ZM1792 256C1810 256 1826.67 259.333 1842 266C1857.33 272.667 1870.67 281.667 1882 293C1893.33 304.333 1902.67 318 1910 334C1917.33 350 1920.67 366.667 1920 384C1920 402 1916.67 418.667 1910 434C1903.33 449.333 1894.33 462.667 1883 474C1871.67 485.333 1858 494.667 1842 502C1826 509.333 1809.33 512.667 1792 512C1774 512 1757.33 508.667 1742 502C1726.67 495.333 1713.33 486.333 1702 475C1690.67 463.667 1681.33 450 1674 434C1666.67 418 1663.33 401.333 1664 384C1664 366 1667.33 349.333 1674 334C1680.67 318.667 1689.67 305.333 1701 294C1712.33 282.667 1726 273.333 1742 266C1758 258.667 1774.67 255.333 1792 256Z" fill="#773B93"/>
</svg>
